<?xml version="1.0" encoding="UTF-8" standalone="no"?>
<!-- Created with Inkscape (http://www.inkscape.org/) -->
<svg xmlns:dc="http://purl.org/dc/elements/1.1/" xmlns:cc="http://creativecommons.org/ns#" xmlns:rdf="http://www.w3.org/1999/02/22-rdf-syntax-ns#" xmlns:svg="http://www.w3.org/2000/svg" xmlns="http://www.w3.org/2000/svg" xmlns:sodipodi="http://sodipodi.sourceforge.net/DTD/sodipodi-0.dtd" xmlns:inkscape="http://www.inkscape.org/namespaces/inkscape" width="40.5" height="12" viewBox="0 0 10.715624 3.1750001" version="1.1" id="svg19376" inkscape:version="0.92.1 r15371" sodipodi:docname="SBB_EC_Logo.svg">
  <defs id="defs19370"/>
  <sodipodi:namedview id="base" pagecolor="#ffffff" bordercolor="#666666" borderopacity="1.0" inkscape:pageopacity="0.0" inkscape:pageshadow="2" inkscape:zoom="11.2" inkscape:cx="17.685821" inkscape:cy="21.487096" inkscape:document-units="mm" inkscape:current-layer="layer1" showgrid="false" inkscape:window-width="1920" inkscape:window-height="1147" inkscape:window-x="1912" inkscape:window-y="-8" inkscape:window-maximized="1" units="px"/>
  <metadata id="metadata19373">
    <rdf:RDF>
      <cc:Work rdf:about="">
        <dc:format>image/svg+xml</dc:format>
        <dc:type rdf:resource="http://purl.org/dc/dcmitype/StillImage"/>
        <dc:title/>
      </cc:Work>
    </rdf:RDF>
  </metadata>
  <g inkscape:label="Ebene 1" inkscape:groupmode="layer" id="layer1" transform="translate(0,-293.82498)">
    <g transform="matrix(2.6141288,0,0,2.6141288,-307.62724,-1271.743)" id="g11098" style="fill:currentColor">
      <g id="use11096" transform="matrix(0.26458333,0,0,0.26458333,117.6607,600.05438)">
        <path inkscape:connector-curvature="0" id="path19402" d="m 1.796875,0 c -0.054687,0 -0.09375,-0.0078125 -0.125,-0.03125 -0.042969,0 -0.085937,-0.015625 -0.125,-0.046875 l -0.140625,-0.125 -0.9375,-0.75 L 0.296875,-1.09375 C 0.242188,-1.132813 0.21875,-1.195313 0.21875,-1.28125 c 0,-0.082031 0.035156,-0.160156 0.109375,-0.234375 l 2.5,-2.515625 0.109375,-0.078125 0.078125,-0.0625 C 3.085938,-4.222656 3.191406,-4.25 3.328125,-4.25 h 4.59375 l -1,1.015625 H 4.015625 L 3.359375,-2.59375 H 6.28125 L 5.625,-1.9375 H 2.703125 l -0.65625,0.65625 H 4.9375 L 6.4375,0 Z M 7.40625,0 7.28125,-0.015625 C 7.25,-0.0234375 7.179688,-0.0664063 7.078125,-0.140625 L 6.96875,-0.234375 6.078125,-1 l -0.125,-0.109375 c -0.042969,-0.039063 -0.0625,-0.097656 -0.0625,-0.171875 0,-0.039063 0.00391,-0.070313 0.015625,-0.09375 0.019531,-0.03125 0.066406,-0.082031 0.140625,-0.15625 L 8.71875,-4.25 h 6.625 l -0.984375,1.015625 H 9.6875 L 7.75,-1.28125 h 5.328125 L 11.796875,0 Z m 0,0" style="stroke:none"/>
      </g>
    </g>
  </g>
</svg>